<svg width="580" height="191" viewBox="0 0 580 191" fill="none" xmlns="http://www.w3.org/2000/svg">
<path d="M24.1164 135.015C22.9709 133.285 21.0416 129.617 19.7755 126.849C16.3389 119.167 16.0977 115.43 18.8711 111.763L20.1975 109.963L29.8441 112.801C44.2537 116.953 44.9169 117.23 45.0977 118.96C45.2183 119.998 44.9771 120.413 44.1934 120.413C43.1684 120.482 43.1684 120.482 44.1934 121.174C45.3992 122.005 45.7006 126.295 44.4948 125.742C44.0728 125.534 42.0832 124.634 40.0936 123.666C33.2807 120.344 22.1871 115.569 21.2828 115.569C19.474 115.569 20.6799 123.043 23.7547 130.932C25.262 134.807 26.4678 138.06 26.3472 138.129C26.2869 138.198 25.262 136.814 24.1164 135.015Z" fill="#7B78F7"/>
<path d="M55.1663 131.347C53.8399 130.517 50.8857 128.856 48.5343 127.679C44.5551 125.672 40.395 122.212 40.395 120.897C40.395 120.067 42.0229 118.337 42.8067 118.337C43.1684 118.337 43.289 118.06 43.1081 117.645C42.9272 117.299 42.9272 116.953 43.2287 116.953C43.7713 116.953 57.578 122.005 59.3264 122.835C60.2911 123.32 60.4116 123.181 60.1102 122.212C59.869 121.52 59.9293 121.174 60.2911 121.451C61.3763 122.212 60.9543 125.188 59.5676 126.226C58.5426 127.057 58.3015 127.887 58.3618 130.101C58.4823 131.624 58.3015 132.87 58.0603 132.87C57.8191 132.8 56.4927 132.108 55.1663 131.347Z" fill="#8D72FE"/>
<path d="M52.7547 107.611C49.4387 100.759 41.842 81.7287 40.8774 78.0609C39.8524 73.9779 40.6965 70.8638 43.5302 68.5109C45.7006 66.7116 46.5447 66.4348 50.0416 66.4348C54.7443 66.4348 60.2911 68.0957 60.2911 69.5489C60.2911 70.1026 59.6882 71.8326 58.9647 73.4243C57.2765 77.2305 56.7339 82.8359 58.1206 83.4587C58.6632 83.6663 59.0853 84.1508 59.0853 84.4968C59.0853 84.912 59.5676 85.95 60.1102 86.9881C61.1954 88.8566 61.316 89.2718 61.8586 93.9776C62.1601 96.3305 62.0395 96.8841 61.2557 96.8841C60.5322 96.8841 60.2911 97.5761 60.2911 99.6522C60.2911 101.59 60.0499 102.42 59.3867 102.42C58.9044 102.42 58.2412 103.043 57.8794 103.804C57.5177 104.566 56.8545 105.188 56.3722 105.188C55.709 105.188 55.6487 105.534 56.0707 106.988C56.8545 109.202 56.8545 113.493 56.131 113.493C55.7692 113.493 54.262 110.863 52.7547 107.611Z" fill="#8D72FE"/>
<path d="M68.1289 140.136C66.9834 139.098 64.1497 137.022 61.7984 135.43C57.578 132.593 54.9252 129.825 54.8649 128.233C54.8649 127.056 58.4221 123.181 59.447 123.181C60.5925 123.181 60.5925 123.112 57.8794 118.199C54.262 111.555 52.3929 103.112 54.5634 103.112C55.0458 103.112 55.709 102.489 56.0707 101.728C56.4324 100.967 57.0956 100.344 57.578 100.344C58.6632 100.344 58.6632 100.067 57.8191 96.6764C57.0956 93.4931 57.3368 93.0086 59.0853 94.1159C60.4117 94.9463 60.4117 94.8771 60.0499 93.0086C59.8087 91.9706 59.0853 90.2405 58.4221 89.2025C57.8191 88.1644 57.2765 87.1264 57.2765 86.8496C57.2765 86.5728 56.8545 85.9499 56.3722 85.5347C55.709 84.9811 55.4075 83.4586 55.3472 80.6213C55.2266 75.8463 55.3472 75.3619 57.0956 71.4865C57.8191 69.9641 58.2412 68.4416 58.0603 68.234C56.3119 66.2271 64.8129 71.2097 71.0229 75.8463C74.5801 78.476 75.9668 79.9293 75.9668 80.9673C75.9668 81.7286 75.5447 82.559 75.0624 82.7666C74.5801 83.0434 74.158 83.9431 74.158 84.9119C74.158 87.0572 73.2537 89.0641 71.0229 91.6246C70.1185 92.801 69.3347 94.1159 69.3347 94.6695C69.3347 95.2231 67.8275 94.3927 65.3555 92.3858C63.185 90.5865 61.316 89.2717 61.1351 89.4101C60.8337 89.8253 67.948 107.472 70.9626 113.839C72.2287 116.538 74.5801 120.967 76.1476 123.666L78.921 128.717L77.474 129.133C76.3888 129.409 75.9668 130.032 75.9668 131.278C75.9668 133.285 73.8566 137.022 72.711 137.022C72.289 137.022 71.5052 138.129 71.0832 139.513L70.2391 141.935L68.1289 140.136Z" fill="#9C6EFE"/>
<path d="M83.2017 107.956L81.0915 105.95L83.3826 105.88C85.4927 105.88 85.6133 106.019 85.6133 107.956C85.6133 109.133 85.553 110.033 85.4324 110.033C85.3722 110.033 84.3472 109.133 83.2017 107.956Z" fill="#9C6EFE"/>
<path d="M76.5093 36.4699C72.8919 31.8333 66.5613 23.3213 65.1143 21.176C64.632 20.4148 67.3451 22.6985 71.264 26.1586C76.8711 31.2796 78.1975 32.8021 77.9563 33.9094C77.7152 34.9474 77.9563 35.2934 78.921 35.2934C80.0062 35.2934 80.1871 35.7086 80.1871 38.0615C80.1871 39.584 80.1268 40.8296 80.0665 40.8296C79.9459 40.8296 78.3784 38.892 76.5093 36.4699Z" fill="#9C6EFE"/>
<path d="M79.4636 150.309C73.4948 145.81 65.1746 136.537 68.4304 137.991C68.9127 138.198 69.2744 138.129 69.2744 137.852C69.0936 136.399 70.1788 134.184 70.9023 134.53C72.0478 135.015 73.8565 131.693 73.6757 129.409C73.4948 127.749 73.736 127.472 75.4844 127.057C77.052 126.71 77.6549 126.849 78.3784 127.956C79.8254 130.032 85.1913 138.267 86.6985 140.62C88.7484 143.873 88.447 146.849 85.9148 149.409C83.5031 151.831 81.815 152.108 79.4636 150.309Z" fill="#AF67FE"/>
<path d="M102.434 126.918C97.0083 121.659 97.0686 121.797 99.6611 121.797C101.711 121.797 101.892 121.936 101.892 123.873C101.892 125.811 102.073 125.949 104.002 125.949C105.931 125.949 106.112 126.088 106.112 128.025C106.112 129.202 106.052 130.101 105.931 130.101C105.811 130.101 104.243 128.648 102.434 126.918Z" fill="#AF67FE"/>
<path d="M87.9044 112.662C83.0811 107.956 75.6653 101.105 70.3597 96.538C66.7422 93.4931 66.5613 92.455 68.9127 89.8253C71.6258 86.8496 72.289 85.2579 71.9272 82.559C71.6861 80.7597 71.8067 80.4137 72.7713 80.4829C73.4345 80.5521 73.8566 80.2061 73.7963 79.4449C73.736 78.7528 73.8566 78.1992 74.0374 78.1992C74.58 78.1992 94.9584 96.0536 96.1642 97.576C97.2495 98.9601 97.1892 98.9601 95.1996 98.9601C93.5114 99.0293 92.9085 99.4445 91.763 101.451C90.3763 104.081 89.2911 108.372 89.2308 111.624C89.2308 113.285 89.4116 113.493 91.341 113.493C93.2703 113.493 93.4511 113.631 93.4511 115.569C93.4511 116.745 93.3909 117.645 93.2703 117.645C93.1497 117.645 90.738 115.361 87.9044 112.662Z" fill="#AF67FE"/>
<path d="M89.0499 53.1479C85.9148 48.8573 82.1767 43.9439 80.8503 42.2138C79.5239 40.4837 78.4387 38.8229 78.3784 38.4769C78.3784 38.2 77.6549 37.3004 76.8108 36.5392C75.8462 35.5703 75.3638 34.6707 75.5447 33.8403C75.7256 33.079 75.605 32.6638 75.3035 32.9406C75.0021 33.1482 74.7609 33.0098 74.7609 32.6638C74.7609 32.2486 75.183 31.7642 75.7256 31.5566C76.3888 31.2798 79.4636 33.9095 85.4927 40.0685C90.3763 44.9819 95.3202 50.1722 96.4657 51.5562L98.5759 54.1167L95.4408 53.8399C93.0291 53.5631 92.2453 53.7015 92.2453 54.3935C92.2453 54.9472 92.9085 55.3624 93.7526 55.3624C95.1393 55.3624 95.2599 55.6392 95.2599 58.1305C95.2599 59.653 95.1393 60.8986 95.0187 60.8986C94.8981 60.8986 92.185 57.3693 89.0499 53.1479Z" fill="#AF67FE"/>
<path d="M72.6507 29.0652C71.7463 27.958 71.7463 27.6812 72.4698 27.6812C72.9522 27.6812 73.8565 28.304 74.4594 29.0652C75.3638 30.1725 75.3638 30.4493 74.6403 30.4493C74.158 30.4493 73.2536 29.8264 72.6507 29.0652Z" fill="#AF67FE"/>
<path d="M134.751 158.89L132.339 156.468L134.63 156.399C137.042 156.399 137.705 157.229 137.343 159.859C137.162 161.243 137.042 161.243 134.751 158.89Z" fill="#BD5FFF"/>
<path d="M125.104 149.201L122.692 146.779L124.983 146.71C127.395 146.71 128.058 147.541 127.696 150.17C127.516 151.554 127.395 151.554 125.104 149.201Z" fill="#BD5FFF"/>
<path d="M133.243 136.953V134.876L135.052 136.33C137.705 138.475 137.765 139.098 135.414 139.098C133.424 139.098 133.243 138.959 133.243 136.953Z" fill="#BD5FFF"/>
<path d="M121.788 125.188V123.112L123.597 124.565C126.25 126.71 126.31 127.333 123.958 127.333C121.969 127.333 121.788 127.195 121.788 125.188Z" fill="#BD5FFF"/>
<path d="M94.8378 119.306C90.738 115.292 87.422 111.624 87.422 111.14C87.422 110.586 87 109.825 86.5177 109.341C85.6736 108.579 85.7339 108.303 86.8191 107.472C87.5426 106.918 87.9647 106.088 87.8441 105.604C87.6029 104.912 88.025 103.666 90.4969 98.4757C91.0395 97.2993 91.763 96.884 93.3909 96.884C95.1996 96.884 96.4054 97.7145 100.385 101.451C109.428 110.102 112.744 113.631 112.383 114.254C112.202 114.6 111.116 114.877 109.971 114.877C108.825 114.877 107.921 115.223 107.921 115.569C107.921 115.984 107.258 117.16 106.414 118.129C105.63 119.167 104.786 120.897 104.605 121.935C104.364 122.974 103.882 124.081 103.459 124.358C103.037 124.704 102.555 125.257 102.435 125.742C102.314 126.226 98.9376 123.389 94.8378 119.306Z" fill="#BD5FFF"/>
<path d="M128.119 114.877C126.913 112.247 126.973 112.109 128.721 112.109C130.048 112.109 130.229 112.385 130.229 114.531C130.229 117.506 129.385 117.645 128.119 114.877Z" fill="#BD5FFF"/>
<path d="M102.977 72.5246C101.41 70.1025 98.6362 66.158 96.8275 63.6667C94.9585 61.1753 93.4512 58.8917 93.4512 58.5456C93.4512 58.2688 92.788 57.3692 91.9439 56.608C91.0998 55.8467 90.4366 54.6703 90.4366 53.909C90.4366 53.0786 90.1955 52.7326 89.7734 53.0094C89.3514 53.2862 89.2308 52.871 89.3514 51.833C89.472 50.4489 89.894 50.1721 91.341 50.2413C95.0187 50.4489 97.4907 52.5942 106.595 63.2514C111.599 69.2029 116 74.6699 116.362 75.5003C117.025 76.8152 116.904 76.8844 114.734 76.6768C112.744 76.4692 112.443 76.1924 112.262 74.6007C112.141 73.4935 111.719 72.663 111.297 72.663C110.815 72.663 109.609 72.4554 108.584 72.2478C106.776 71.8326 106.715 71.8326 106.715 74.3239C106.715 75.708 106.474 76.8152 106.233 76.8152C105.931 76.8152 104.484 74.8775 102.977 72.5246Z" fill="#BD5FFF"/>
<path d="M130.53 154.738L128.118 152.316L130.41 152.246C132.821 152.246 133.484 153.077 133.123 155.706C132.942 157.091 132.821 157.091 130.53 154.738Z" fill="#CE5FFE"/>
<path d="M109.609 133.908C101.108 125.465 99.4802 123.181 101.53 122.281C102.012 122.074 102.555 120.967 102.736 119.929C102.977 118.821 103.821 117.091 104.605 116.053C105.449 115.084 106.112 113.769 106.112 113.285C106.112 112.731 106.534 111.901 107.017 111.417C107.8 110.725 108.162 110.725 109.006 111.555C109.549 112.178 110.333 112.524 110.694 112.316C111.297 112.109 115.819 116.399 124.802 125.88L128.119 129.34L126.008 129.409C124.079 129.409 123.778 129.686 123.054 131.831C122.632 133.146 121.909 134.254 121.426 134.254C120.944 134.254 120.582 134.946 120.582 135.984C120.582 136.883 120.22 137.921 119.738 138.198C119.256 138.475 118.773 139.651 118.653 140.689C118.472 142.627 118.231 142.419 109.609 133.908Z" fill="#CE5FFE"/>
<path d="M116.663 93.6315C115.035 90.6557 111.719 85.4655 109.368 82.0054C107.017 78.5452 104.906 74.8775 104.665 73.8394C104.484 72.8014 104.002 72.1094 103.701 72.317C103.339 72.5246 103.098 72.2478 103.098 71.6249C103.098 71.0713 103.58 70.3101 104.183 70.1025C104.726 69.8257 105.509 69.2028 105.871 68.6492C106.414 67.8188 106.715 67.8188 107.981 68.58C108.765 69.0644 109.549 69.5489 109.73 69.6181C112.021 70.2409 114.674 72.5246 114.191 73.4242C114.01 73.7702 114.312 74.2546 114.915 74.5315C116.603 75.2927 124.802 86.0883 129.867 94.3235L132.761 98.9601H130.229C128.299 98.9601 127.636 98.6833 127.395 97.7144C127.274 97.0224 126.551 95.9844 125.888 95.4307C125.164 94.8771 124.139 93.9775 123.597 93.3546C122.089 91.6938 120.582 93.2162 120.582 96.4688C120.582 97.8528 120.401 98.9601 120.16 98.9601C119.859 98.9601 118.351 96.538 116.663 93.6315Z" fill="#CE5FFE"/>
<path d="M148.617 171.831C146.507 170.516 142.528 166.779 131.676 155.776C127.395 151.485 122.21 146.226 120.16 144.15C118.05 142.074 116.362 139.928 116.362 139.375C116.362 138.821 116.121 138.406 115.759 138.406C115.457 138.406 115.156 138.06 115.156 137.645C115.156 137.299 115.397 137.16 115.759 137.368C116.543 137.921 119.015 135.222 118.532 134.392C117.99 133.354 118.773 131.555 119.617 131.901C120.582 132.316 121.848 129.133 121.366 127.61C121.004 126.572 121.306 126.503 123.657 126.918C125.104 127.195 126.973 128.095 127.817 128.994C128.661 129.825 131.073 132.316 133.183 134.53C135.293 136.676 137.162 138.337 137.283 138.129C138.368 136.883 125.707 108.164 120.522 100.067C119.557 98.5449 118.773 96.7457 118.773 95.9844C118.773 95.2924 118.532 94.9464 118.17 95.154C117.869 95.3616 117.266 94.6696 116.904 93.6315C116.543 92.5935 115.879 90.8634 115.457 89.8254L114.613 87.8877L116.121 88.9949C116.904 89.6178 117.568 90.379 117.568 90.725C117.568 91.8323 119.437 91.417 121.004 90.033C122.632 88.5105 123.898 88.7873 124.802 90.6558C125.164 91.4862 125.888 91.8323 126.732 91.6246C127.516 91.4862 127.757 91.4863 127.395 91.7631C126.792 92.0399 126.792 92.3859 127.455 93.1471C127.938 93.7007 128.601 94.116 128.963 94.116C129.324 94.116 129.445 94.6004 129.264 95.154C129.023 95.846 129.445 96.3996 130.41 96.8149C132.761 97.8529 141.865 113.977 147.653 127.264C153.139 139.859 159.168 159.72 159.168 165.118C159.168 167.125 158.686 168.163 156.817 170.308C154.164 173.353 151.813 173.768 148.617 171.831Z" fill="#E559FE"/>
<path d="M364.761 76.5384C364.761 75.9848 365.605 75.362 366.63 75.0852C368.74 74.5315 369.162 74.8084 368.62 76.4C368.137 77.7841 364.761 77.9225 364.761 76.5384Z" fill="#E559FE"/>
<path d="M245.083 64.3587C245.264 64.0127 246.229 63.0438 247.193 62.2826L249.002 60.8293V62.9054C249.002 64.9123 248.821 65.0507 246.832 65.0507C245.626 65.0507 244.842 64.7739 245.083 64.3587Z" fill="#E559FE"/>
<path d="M277.218 133.631C275.53 131.901 275.229 131.14 275.229 128.371C275.229 125.603 275.53 124.842 277.218 123.112C280.655 119.583 284.333 120.621 287.287 126.019C288.131 127.472 289.638 129.202 290.724 129.825L292.653 131.001L290.965 132.524C288.794 134.53 285.478 135.638 281.921 135.638C279.751 135.638 278.786 135.223 277.218 133.631Z" fill="white"/>
<path d="M368.499 121.728C361.988 120.482 355.597 115.223 352.341 108.51C350.773 105.188 350.593 104.22 350.593 98.6141C350.593 93.2163 350.834 91.9014 352.281 88.5105C354.21 84.0123 357.948 79.7217 362.168 77.2996C365.304 75.4311 369.283 74.2547 368.921 75.2235C368.8 75.5003 367.896 77.5764 366.992 79.7217C363.796 86.988 363.615 97.0916 366.509 103.666C368.077 107.264 372.599 111.901 376.578 113.977C379.291 115.361 380.557 115.638 384.054 115.43C386.405 115.292 388.274 115.43 388.274 115.776C388.274 117.022 382.426 120.413 378.568 121.382C374.106 122.558 373.202 122.627 368.499 121.728Z" fill="white"/>
<path d="M517.599 121.797C513.68 121.174 508.857 118.337 505.42 114.669C499.21 108.164 497.341 97.5761 500.898 88.9258C503.129 83.5971 508.193 78.1301 512.775 76.1924C516.212 74.67 518.141 74.3239 517.78 75.2928C517.659 75.5696 516.875 77.3689 515.971 79.2374C511.389 89.2718 512.474 101.175 518.684 108.51C522.603 113.216 526.341 115.084 532.37 115.569L537.495 115.915L534.54 118.129C531.707 120.275 524.894 122.558 522 122.42C521.216 122.351 519.227 122.074 517.599 121.797Z" fill="white"/>
<path d="M187.927 120.621C187.686 120.413 187.505 115.984 187.505 110.794V101.382L190.881 105.742C194.861 110.794 200.227 115.43 205.834 118.406C208.004 119.583 209.813 120.69 209.813 120.828C209.813 121.313 188.349 121.105 187.927 120.621Z" fill="white"/>
<path d="M253.042 120.344C249.545 119.375 247.555 117.991 244.842 114.462C240.622 108.925 239.838 105.396 239.416 90.6558C239.054 78.1992 238.994 77.784 237.366 74.5315C236.401 72.663 235.738 71.0713 235.859 70.9329C235.919 70.8637 238.15 69.2721 240.742 67.4728C243.335 65.6735 247.073 62.4902 249.002 60.4833C250.931 58.4072 252.559 56.7463 252.68 56.7463C252.8 56.7463 252.921 60.6909 252.921 65.5351V74.3931L260.337 74.6007L267.692 74.8083L267.632 84.2891V93.7699L266.306 91.763C261.241 84.0123 254.911 76.8152 253.222 76.8152C252.378 76.8152 252.439 98.6833 253.283 103.043C254.428 109.271 259.674 115.43 266.064 118.129C267.632 118.752 268.898 119.513 268.898 119.79C268.898 121.036 257.202 121.451 253.042 120.344Z" fill="white"/>
<path d="M329.069 94.9464C328.888 71.2098 328.767 68.6493 327.803 66.9192C327.2 65.8812 326.898 64.7047 327.139 64.2895C327.32 63.9435 328.888 62.9054 330.636 62.0058C332.324 61.1062 335.52 59.0993 337.69 57.5076C339.921 55.9851 341.971 54.6703 342.393 54.6703C342.875 54.6703 343.056 63.113 342.936 87.7493L342.755 120.759L336.002 120.967L329.249 121.174L329.069 94.9464Z" fill="white"/>
<path d="M406.06 119.721C402.443 117.022 401.237 112.039 403.106 107.541C404.372 104.496 406.663 103.112 410.522 103.112C417.938 103.112 420.832 113.147 415.104 118.96C412.511 121.589 408.894 121.866 406.06 119.721Z" fill="white"/>
<path d="M425.474 120.69C425.233 120.413 425.052 111.555 425.052 101.036C425.052 86.5036 425.233 81.6594 425.836 81.175C426.197 80.829 428.067 80.137 429.875 79.6525C431.684 79.2373 434.638 78.1301 436.387 77.1612L439.522 75.5004L439.401 98.1297L439.22 120.759L432.528 120.967C428.911 121.036 425.715 120.897 425.474 120.69Z" fill="white"/>
<path d="M451.58 120.621C451.399 116.745 451.701 75.7772 451.881 75.5004C452.605 74.67 457.428 78.1993 460.021 81.4519C464.603 87.2649 465.146 89.7562 465.146 106.573V120.759L458.393 120.967C454.655 121.036 451.58 120.898 451.58 120.621Z" fill="white"/>
<path d="M477.324 120.136C477.143 119.583 476.963 109.479 476.902 97.6453C476.902 79.0297 477.023 76.054 477.807 75.708C479.133 75.0851 483.655 78.4069 486.428 82.0746C490.528 87.334 491.071 90.2406 491.071 106.572V120.759L484.378 120.967C478.952 121.105 477.565 120.967 477.324 120.136Z" fill="white"/>
<path d="M296.994 118.891C293.557 112.662 274.927 76.6076 274.927 76.054C274.927 75.708 278.183 75.4312 282.343 75.4312H289.819L297.717 90.9326C302.119 99.3754 305.676 106.642 305.676 106.988C305.676 107.611 298.441 120.413 298.079 120.413C297.958 120.413 297.476 119.721 296.994 118.891Z" fill="white"/>
<path d="M217.952 104.22C201.854 96.6764 200.89 96.1228 196.428 91.1402C191.846 85.95 188.771 79.6525 188.289 74.3931C188.108 72.317 188.168 70.5869 188.47 70.5869C188.771 70.5869 195.825 73.701 204.085 77.5072C215.661 82.8358 219.882 85.1195 222.112 87.1956C227.9 92.7318 230.794 98.5449 231.337 105.742C231.638 109.133 231.518 110.033 230.854 109.963C230.372 109.894 224.584 107.334 217.952 104.22Z" fill="white"/>
<path d="M380.979 99.5137C380.979 99.3753 380.859 96.538 380.738 93.0778C380.497 86.8496 379.11 80.4829 377.181 77.3688C375.794 75.0851 375.975 74.6007 378.206 75.0851C381.642 75.9155 387.069 79.7217 389.782 83.1818C392.555 86.7112 394.906 93.2162 394.906 97.3684V99.6521H387.973C384.175 99.6521 381.04 99.5829 380.979 99.5137Z" fill="white"/>
<path d="M529.717 98.8218C529.536 98.3373 529.356 94.9464 529.175 91.3478C528.933 84.7044 527.306 78.6145 525.376 76.746C522.301 73.8395 527.306 74.4623 532.551 77.6457C538.64 81.3826 543.042 88.7873 543.343 95.9152L543.524 99.3062L536.711 99.5138C531.586 99.6522 529.898 99.4446 529.717 98.8218Z" fill="white"/>
<path d="M311.343 91.5554C310.017 87.1264 307.183 81.3134 305.073 78.6145L302.48 75.4312H312.549C321.653 75.4312 323.823 75.8464 322.015 77.1612C321.653 77.3688 319.362 80.9674 316.83 85.1196C314.358 89.3409 312.127 92.7319 311.946 92.7319C311.825 92.7319 311.524 92.1783 311.343 91.5554Z" fill="white"/>
<path d="M222.052 75.8464C219.339 74.3931 218.012 71.1406 218.555 67.196C219.158 62.9746 219.158 59.5145 218.555 57.5768C218.012 55.7775 218.977 55.6391 222.474 56.7464C229.046 58.8225 233.447 65.0507 232.181 70.4486C231.819 71.9018 230.915 73.7703 230.191 74.6007C228.383 76.5384 224.524 77.092 222.052 75.8464Z" fill="white"/>
</svg>
