<svg width="256" height="89" viewBox="0 0 256 89" fill="none" xmlns="http://www.w3.org/2000/svg">
<path d="M10.6444 62.9127C10.1388 62.1065 9.28722 60.3975 8.72838 59.1076C7.21154 55.5283 7.1051 53.787 8.32921 52.0779L8.91466 51.2395L13.1725 52.5616C19.5325 54.4964 19.8253 54.6254 19.9051 55.4315C19.9583 55.9152 19.8519 56.1087 19.5059 56.1087C19.0535 56.141 19.0535 56.141 19.5059 56.4634C20.0382 56.8504 20.1712 58.8496 19.639 58.5917C19.4527 58.4949 18.5745 58.0757 17.6964 57.6243C14.6893 56.0765 9.79283 53.8515 9.39366 53.8515C8.59533 53.8515 9.12755 57.3341 10.4847 61.0102C11.15 62.816 11.6822 64.3315 11.629 64.3638C11.6024 64.396 11.15 63.7511 10.6444 62.9127Z" fill="#7B78F7"/>
<path d="M24.3493 61.2037C23.7639 60.8168 22.4599 60.0428 21.4221 59.4946C19.6658 58.5595 17.8296 56.9472 17.8296 56.3345C17.8296 55.9475 18.5481 55.1414 18.894 55.1414C19.0537 55.1414 19.1069 55.0124 19.0271 54.8189C18.9473 54.6577 18.9473 54.4965 19.0803 54.4965C19.3198 54.4965 25.4138 56.8504 26.1855 57.2374C26.6113 57.4631 26.6645 57.3986 26.5315 56.9472C26.425 56.6247 26.4516 56.4635 26.6113 56.5925C27.0903 56.9472 26.904 58.3338 26.292 58.8175C25.8396 59.2044 25.7331 59.5914 25.7597 60.6233C25.813 61.3327 25.7331 61.9131 25.6267 61.9131C25.5202 61.8809 24.9348 61.5584 24.3493 61.2037Z" fill="#8D72FE"/>
<path d="M23.2848 50.1431C21.8212 46.9507 18.4682 38.083 18.0424 36.3739C17.59 34.4714 17.9626 33.0203 19.2133 31.9239C20.1713 31.0855 20.5439 30.9565 22.0873 30.9565C24.163 30.9565 26.6112 31.7305 26.6112 32.4076C26.6112 32.6656 26.3451 33.4718 26.0258 34.2134C25.2807 35.987 25.0412 38.5989 25.6532 38.8892C25.8927 38.9859 26.079 39.2116 26.079 39.3728C26.079 39.5663 26.2919 40.05 26.5314 40.5337C27.0104 41.4044 27.0636 41.5978 27.3031 43.7906C27.4362 44.887 27.3829 45.1449 27.037 45.1449C26.7177 45.1449 26.6112 45.4674 26.6112 46.4348C26.6112 47.3377 26.5048 47.7247 26.212 47.7247C25.9992 47.7247 25.7064 48.0149 25.5468 48.3696C25.3871 48.7243 25.0944 49.0145 24.8815 49.0145C24.5888 49.0145 24.5622 49.1757 24.7484 49.8529C25.0944 50.8848 25.0944 52.8841 24.775 52.8841C24.6154 52.8841 23.9501 51.6587 23.2848 50.1431Z" fill="#8D72FE"/>
<path d="M30.0707 65.2989C29.565 64.8152 28.3143 63.8478 27.2765 63.1061C25.4137 61.784 24.2428 60.4942 24.2162 59.7525C24.2162 59.2043 25.7863 57.3985 26.2386 57.3985C26.7443 57.3985 26.7443 57.3663 25.5468 55.0768C23.9501 51.9811 23.1251 48.0471 24.0831 48.0471C24.296 48.0471 24.5887 47.7568 24.7484 47.4021C24.9081 47.0474 25.2008 46.7572 25.4137 46.7572C25.8927 46.7572 25.8927 46.6282 25.5201 45.0481C25.2008 43.5648 25.3072 43.3391 26.079 43.855C26.6644 44.242 26.6644 44.2097 26.5048 43.3391C26.3983 42.8554 26.079 42.0492 25.7863 41.5655C25.5201 41.0818 25.2806 40.5981 25.2806 40.4692C25.2806 40.3402 25.0944 40.0499 24.8815 39.8565C24.5887 39.5985 24.4557 38.8891 24.4291 37.567C24.3759 35.342 24.4291 35.1163 25.2008 33.3105C25.5201 32.601 25.7064 31.8916 25.6266 31.7949C24.8549 30.8597 28.607 33.1815 31.348 35.342C32.9181 36.5673 33.5301 37.2445 33.5301 37.7282C33.5301 38.0829 33.3438 38.4699 33.1309 38.5666C32.9181 38.6956 32.7318 39.1148 32.7318 39.5663C32.7318 40.5659 32.3326 41.501 31.348 42.6942C30.9488 43.2423 30.6029 43.855 30.6029 44.113C30.6029 44.371 29.9376 43.984 28.8465 43.0489C27.8885 42.2105 27.0636 41.5978 26.9838 41.6623C26.8507 41.8557 29.9908 50.0786 31.3214 53.0452C31.8802 54.3028 32.9181 56.3666 33.61 57.6242L34.8341 59.9782L34.1954 60.1717C33.7164 60.3007 33.5301 60.5909 33.5301 61.1713C33.5301 62.1065 32.5987 63.8478 32.0931 63.8478C31.9068 63.8478 31.5609 64.3637 31.3746 65.0086L31.0021 66.1373L30.0707 65.2989Z" fill="#9C6EFE"/>
<path d="M36.7234 50.3043L35.792 49.3692L36.8032 49.3369C37.7346 49.3369 37.7878 49.4014 37.7878 50.3043C37.7878 50.8525 37.7612 51.2717 37.708 51.2717C37.6814 51.2717 37.229 50.8525 36.7234 50.3043Z" fill="#9C6EFE"/>
<path d="M33.7698 16.9938C32.1732 14.8333 29.379 10.867 28.7403 9.86739C28.5274 9.51268 29.7249 10.5768 31.4547 12.1891C33.9295 14.5754 34.515 15.2848 34.4085 15.8007C34.3021 16.2844 34.4085 16.4456 34.8343 16.4456C35.3133 16.4456 35.3931 16.6391 35.3931 17.7355C35.3931 18.4449 35.3665 19.0254 35.3399 19.0254C35.2867 19.0254 34.5948 18.1225 33.7698 16.9938Z" fill="#9C6EFE"/>
<path d="M35.0736 70.0391C32.439 67.9431 28.7667 63.6221 30.2037 64.2993C30.4166 64.396 30.5763 64.3638 30.5763 64.2348C30.4964 63.5576 30.9754 62.5257 31.2948 62.687C31.8004 62.9127 32.5987 61.3649 32.5189 60.3007C32.439 59.5268 32.5455 59.3978 33.3172 59.2044C34.0091 59.0431 34.2752 59.1076 34.5946 59.6236C35.2332 60.591 37.6016 64.4283 38.2669 65.5247C39.1717 67.0402 39.0386 68.4268 37.921 69.6199C36.8565 70.7486 36.1114 70.8776 35.0736 70.0391Z" fill="#AF67FE"/>
<path d="M45.2125 59.1398C42.8175 56.6891 42.8441 56.7536 43.9884 56.7536C44.8931 56.7536 44.973 56.8181 44.973 57.721C44.973 58.6239 45.0528 58.6884 45.9044 58.6884C46.7559 58.6884 46.8358 58.7529 46.8358 59.6558C46.8358 60.2039 46.8092 60.6231 46.7559 60.6231C46.7027 60.6231 46.0108 59.946 45.2125 59.1398Z" fill="#AF67FE"/>
<path d="M38.7991 52.4971C36.6702 50.3043 33.3971 47.1119 31.0553 44.9836C29.4586 43.5648 29.3788 43.0811 30.4166 41.8557C31.6141 40.4692 31.9068 39.7275 31.7472 38.4699C31.6407 37.6315 31.6939 37.4702 32.1197 37.5025C32.4124 37.5347 32.5987 37.3735 32.5721 37.0188C32.5455 36.6963 32.5987 36.4384 32.6786 36.4384C32.9181 36.4384 41.9126 44.7579 42.4449 45.4673C42.9239 46.1123 42.8973 46.1123 42.0191 46.1123C41.274 46.1445 41.0079 46.338 40.5023 47.2731C39.8902 48.4985 39.4112 50.4978 39.3846 52.0134C39.3846 52.7873 39.4644 52.884 40.316 52.884C41.1675 52.884 41.2474 52.9485 41.2474 53.8514C41.2474 54.3996 41.2208 54.8188 41.1675 54.8188C41.1143 54.8188 40.0499 53.7547 38.7991 52.4971Z" fill="#AF67FE"/>
<path d="M39.3049 24.7652C37.9211 22.766 36.2712 20.4765 35.6858 19.6703C35.1003 18.8642 34.6213 18.0902 34.5947 17.929C34.5947 17.8 34.2754 17.3808 33.9028 17.0261C33.477 16.5747 33.2642 16.1555 33.344 15.7685C33.4238 15.4138 33.3706 15.2203 33.2375 15.3493C33.1045 15.446 32.998 15.3815 32.998 15.2203C32.998 15.0268 33.1843 14.8011 33.4238 14.7044C33.7165 14.5754 35.0737 15.8008 37.7348 18.6707C39.8904 20.9602 42.0725 23.3786 42.5781 24.0236L43.5095 25.2167L42.1257 25.0877C41.0612 24.9587 40.7153 25.0232 40.7153 25.3457C40.7153 25.6036 41.008 25.7971 41.3806 25.7971C41.9926 25.7971 42.0459 25.9261 42.0459 27.087C42.0459 27.7964 41.9926 28.3768 41.9394 28.3768C41.8862 28.3768 40.6887 26.7323 39.3049 24.7652Z" fill="#AF67FE"/>
<path d="M32.0665 13.5435C31.6674 13.0275 31.6674 12.8986 31.9867 12.8986C32.1996 12.8986 32.5988 13.1888 32.8649 13.5435C33.264 14.0594 33.264 14.1884 32.9447 14.1884C32.7318 14.1884 32.3326 13.8982 32.0665 13.5435Z" fill="#AF67FE"/>
<path d="M59.4761 74.0377L58.4116 72.9091L59.4228 72.8768C60.4873 72.8768 60.78 73.2638 60.6204 74.4891C60.5405 75.1341 60.4873 75.1341 59.4761 74.0377Z" fill="#BE63FE"/>
<path d="M55.2183 69.5232L54.1538 68.3946L55.165 68.3623C56.2295 68.3623 56.5222 68.7493 56.3625 69.9746C56.2827 70.6196 56.2295 70.6196 55.2183 69.5232Z" fill="#BE63FE"/>
<path d="M58.811 63.8157V62.8483L59.6094 63.5254C60.7803 64.5251 60.8069 64.8153 59.769 64.8153C58.8909 64.8153 58.811 64.7508 58.811 63.8157Z" fill="#BE63FE"/>
<path d="M53.7549 58.3337V57.3663L54.5532 58.0435C55.7241 59.0431 55.7507 59.3334 54.7129 59.3334C53.8347 59.3334 53.7549 59.2689 53.7549 58.3337Z" fill="#BE63FE"/>
<path d="M41.8596 55.5928C40.05 53.7226 38.5864 52.0135 38.5864 51.7878C38.5864 51.5298 38.4001 51.1751 38.1873 50.9494C37.8147 50.5947 37.8413 50.4657 38.3203 50.0787C38.6397 49.8207 38.8259 49.4338 38.7727 49.2081C38.6663 48.8856 38.8525 48.3052 39.9436 45.8867C40.1831 45.3385 40.5024 45.145 41.2209 45.145C42.0193 45.145 42.5515 45.532 44.3078 47.2733C48.2995 51.3041 49.7631 52.9486 49.6035 53.2389C49.5236 53.4001 49.0446 53.5291 48.539 53.5291C48.0334 53.5291 47.6342 53.6903 47.6342 53.8515C47.6342 54.045 47.3415 54.5932 46.969 55.0447C46.623 55.5284 46.2505 56.3345 46.1706 56.8182C46.0642 57.3019 45.8513 57.8178 45.665 57.9468C45.4787 58.1081 45.2658 58.366 45.2126 58.5918C45.1594 58.8175 43.6692 57.4954 41.8596 55.5928Z" fill="#BE63FE"/>
<path d="M56.5491 53.529C56.0169 52.3036 56.0435 52.2391 56.8152 52.2391C57.4007 52.2391 57.4805 52.3681 57.4805 53.3678C57.4805 54.7544 57.108 54.8188 56.5491 53.529Z" fill="#BE63FE"/>
<path d="M45.4522 33.7942C44.7603 32.6656 43.5361 30.8276 42.7378 29.6667C41.9129 28.5058 41.2476 27.4417 41.2476 27.2805C41.2476 27.1515 40.9549 26.7323 40.5823 26.3776C40.2097 26.0229 39.917 25.4747 39.917 25.12C39.917 24.733 39.8106 24.5718 39.6243 24.7008C39.438 24.8297 39.3848 24.6363 39.438 24.1526C39.4912 23.5076 39.6775 23.3787 40.3162 23.4109C41.9395 23.5076 43.0305 24.5073 47.0488 29.4732C49.2576 32.2464 51.2002 34.7939 51.3598 35.1808C51.6526 35.7935 51.5993 35.8258 50.6413 35.729C49.7632 35.6323 49.6301 35.5033 49.5503 34.7616C49.4971 34.2457 49.3108 33.8587 49.1245 33.8587C48.9116 33.8587 48.3794 33.762 47.927 33.6653C47.1287 33.4718 47.1021 33.4718 47.1021 34.6326C47.1021 35.2776 46.9956 35.7935 46.8892 35.7935C46.7561 35.7935 46.1174 34.8906 45.4522 33.7942Z" fill="#BE63FE"/>
<path d="M57.6133 72.1029L56.5488 70.9743L57.5601 70.942C58.6245 70.942 58.9172 71.329 58.7576 72.5543C58.6777 73.1993 58.6245 73.1993 57.6133 72.1029Z" fill="#CE5FFE"/>
<path d="M48.379 62.3967C44.6269 58.4626 43.9083 57.3985 44.8131 56.9793C45.026 56.8825 45.2655 56.3666 45.3454 55.8829C45.4518 55.367 45.8244 54.5608 46.1703 54.0771C46.5429 53.6256 46.8356 53.013 46.8356 52.7872C46.8356 52.5293 47.0219 52.1423 47.2348 51.9166C47.5807 51.5941 47.7404 51.5941 48.1129 51.9811C48.3524 52.2713 48.6984 52.4325 48.858 52.3358C49.1242 52.2391 51.12 54.2383 55.0851 58.6561L56.5487 60.2684L55.6173 60.3006C54.7657 60.3006 54.6327 60.4296 54.3133 61.4293C54.1271 62.042 53.8077 62.5579 53.5948 62.5579C53.3819 62.5579 53.2223 62.8804 53.2223 63.3641C53.2223 63.7833 53.0626 64.2669 52.8497 64.3959C52.6368 64.5249 52.4239 65.0731 52.3707 65.5568C52.2909 66.4597 52.1844 66.363 48.379 62.3967Z" fill="#CE5FFE"/>
<path d="M51.4924 43.6293C50.7739 42.2427 49.3103 39.8242 48.2724 38.2119C47.2346 36.5996 46.3032 34.8905 46.1968 34.4068C46.1169 33.9231 45.9041 33.6007 45.771 33.6974C45.6113 33.7941 45.5049 33.6652 45.5049 33.3749C45.5049 33.117 45.7178 32.7623 45.9839 32.6655C46.2234 32.5365 46.5693 32.2463 46.729 31.9883C46.9685 31.6014 47.1016 31.6014 47.6604 31.9561C48.0063 32.1818 48.3523 32.4076 48.4321 32.4398C49.4433 32.73 50.6142 33.7941 50.4013 34.2133C50.3215 34.3746 50.4546 34.6003 50.7207 34.7293C51.4658 35.084 55.0849 40.1144 57.3203 43.9518L58.5976 46.1123H57.4799C56.6284 46.1123 56.3357 45.9833 56.2292 45.5318C56.176 45.2094 55.8567 44.7257 55.5639 44.4677C55.2446 44.2097 54.7922 43.7905 54.5527 43.5003C53.8874 42.7264 53.2221 43.4358 53.2221 44.9514C53.2221 45.5963 53.1423 46.1123 53.0359 46.1123C52.9028 46.1123 52.2375 44.9836 51.4924 43.6293Z" fill="#CE5FFE"/>
<path d="M65.5966 80.0677C64.6652 79.4551 62.9089 77.7138 58.1189 72.5866C56.2295 70.5873 53.9409 68.1366 53.0361 67.1692C52.1047 66.2018 51.3596 65.2022 51.3596 64.9442C51.3596 64.6862 51.2532 64.4927 51.0935 64.4927C50.9604 64.4927 50.8274 64.3315 50.8274 64.138C50.8274 63.9768 50.9338 63.9123 51.0935 64.009C51.4394 64.267 52.5305 63.0094 52.3176 62.6224C52.0781 62.1388 52.4241 61.3003 52.7966 61.4616C53.2224 61.6551 53.7812 60.1717 53.5683 59.4623C53.4087 58.9786 53.5417 58.9464 54.5796 59.1398C55.2182 59.2688 56.0432 59.688 56.4157 60.1072C56.7883 60.4942 57.8528 61.6551 58.7841 62.6869C59.7155 63.6866 60.5405 64.4605 60.5937 64.3638C61.0727 63.7833 55.4844 50.4011 53.1958 46.6282C52.77 45.9188 52.4241 45.0804 52.4241 44.7257C52.4241 44.4032 52.3176 44.242 52.158 44.3388C52.0249 44.4355 51.7588 44.113 51.5991 43.6293C51.4394 43.1456 51.1467 42.3395 50.9604 41.8558L50.5879 40.9529L51.2532 41.4688C51.5991 41.759 51.8918 42.1138 51.8918 42.275C51.8918 42.7909 52.7168 42.5974 53.4087 41.9525C54.1272 41.2431 54.686 41.3721 55.0852 42.2427C55.2449 42.6297 55.5642 42.7909 55.9367 42.6942C56.2827 42.6297 56.3891 42.6297 56.2295 42.7587C55.9634 42.8877 55.9634 43.0489 56.2561 43.4036C56.469 43.6616 56.7617 43.8551 56.9214 43.8551C57.081 43.8551 57.1342 44.0808 57.0544 44.3388C56.948 44.6612 57.1343 44.9192 57.56 45.1127C58.5979 45.5964 62.6162 53.1098 65.1708 59.3011C67.5925 65.1699 70.2536 74.4246 70.2536 76.9398C70.2536 77.875 70.0407 78.3587 69.2157 79.3583C68.0449 80.7772 67.007 80.9706 65.5966 80.0677Z" fill="#E559FE"/>
<path d="M180.814 68.0737C180.069 67.2675 179.936 66.9128 179.936 65.623C179.936 64.3331 180.069 63.9784 180.814 63.1723C182.331 61.5277 183.954 62.0114 185.258 64.5266C185.631 65.2038 186.296 66.0099 186.775 66.3002L187.627 66.8483L186.882 67.5578C185.924 68.4929 184.46 69.0089 182.89 69.0089C181.932 69.0089 181.506 68.8154 180.814 68.0737Z" fill="white"/>
<path d="M221.382 63.2176C218.508 62.6371 215.687 60.1864 214.25 57.0585C213.558 55.5107 213.479 55.0592 213.479 52.4473C213.479 49.9321 213.585 49.3194 214.224 47.7393C215.075 45.6433 216.725 43.644 218.588 42.5154C219.972 41.6447 221.728 41.0965 221.568 41.548C221.515 41.677 221.116 42.6444 220.717 43.644C219.306 47.0299 219.227 51.7379 220.504 54.8013C221.196 56.4781 223.192 58.6386 224.948 59.606C226.145 60.2509 226.704 60.3799 228.248 60.2831C229.286 60.2187 230.111 60.2831 230.111 60.4444C230.111 61.0248 227.529 62.6049 225.826 63.0563C223.857 63.6045 223.458 63.6368 221.382 63.2176Z" fill="white"/>
<path d="M141.681 62.7016C141.575 62.6048 141.495 60.541 141.495 58.1226V53.7371L142.985 55.7686C144.742 58.1226 147.11 60.2831 149.585 61.6697C150.543 62.2179 151.341 62.7338 151.341 62.7983C151.341 63.024 141.868 62.9273 141.681 62.7016Z" fill="white"/>
<path d="M170.421 62.5725C168.878 62.1211 168 61.4762 166.802 59.8316C164.94 57.2519 164.594 55.6073 164.407 48.7388C164.248 42.9345 164.221 42.741 163.503 41.2254C163.077 40.3548 162.784 39.6131 162.837 39.5486C162.864 39.5164 163.849 38.7747 164.993 37.9363C166.137 37.0979 167.787 35.6146 168.639 34.6794C169.49 33.712 170.209 32.9381 170.262 32.9381C170.315 32.9381 170.368 34.7762 170.368 37.0334V41.1609L173.641 41.2577L176.888 41.3544L176.861 45.7722V50.1899L176.276 49.2548C174.041 45.6432 171.246 42.2896 170.501 42.2896C170.129 42.2896 170.155 52.4794 170.528 54.5109C171.034 57.4131 173.349 60.283 176.17 61.5406C176.861 61.8309 177.42 62.1856 177.42 62.3146C177.42 62.895 172.258 63.0885 170.421 62.5725Z" fill="white"/>
<path d="M203.979 50.7382C203.899 39.6777 203.846 38.4846 203.42 37.6784C203.154 37.1947 203.021 36.6466 203.127 36.4531C203.207 36.2918 203.899 35.8081 204.671 35.3889C205.416 34.9697 206.826 34.0346 207.784 33.2929C208.769 32.5835 209.673 31.9708 209.86 31.9708C210.073 31.9708 210.152 35.9049 210.099 47.3846L210.019 62.7661L207.039 62.8629L204.058 62.9596L203.979 50.7382Z" fill="white"/>
<path d="M131.734 63.04C130.137 61.7824 129.605 59.4607 130.43 57.3647C130.988 55.9458 132 55.3009 133.703 55.3009C136.976 55.3009 138.253 59.9766 135.725 62.6853C134.581 63.9107 132.984 64.0397 131.734 63.04Z" fill="white"/>
<path d="M77.0681 59.9976C76.9617 59.8686 76.8818 55.741 76.8818 50.8396C76.8818 44.0678 76.9617 41.8106 77.2278 41.5849C77.3874 41.4236 78.2124 41.1012 79.0107 40.8755C79.8091 40.682 81.113 40.166 81.8847 39.7146L83.2685 38.9407L83.2153 49.4852L83.1355 60.0298L80.1816 60.1265C78.585 60.1588 77.1746 60.0943 77.0681 59.9976Z" fill="white"/>
<path d="M88.591 59.9654C88.5112 58.1596 88.6442 39.0697 88.7241 38.9407C89.0434 38.5538 91.1723 40.1983 92.3166 41.7139C94.339 44.4226 94.5785 45.5835 94.5785 53.4194V60.0299L91.5981 60.1266C89.9482 60.1588 88.591 60.0944 88.591 59.9654Z" fill="white"/>
<path d="M99.9539 59.7397C99.874 59.4818 99.7942 54.7738 99.7676 49.2597C99.7676 40.5854 99.8208 39.1988 100.167 39.0376C100.752 38.7473 102.748 40.2952 103.972 42.0042C105.782 44.455 106.021 45.8093 106.021 53.4194V60.03L103.067 60.1267C100.672 60.1912 100.06 60.1267 99.9539 59.7397Z" fill="white"/>
<path d="M189.821 61.8955C188.304 58.9933 180.082 42.193 180.082 41.935C180.082 41.7738 181.519 41.6448 183.355 41.6448H186.655L190.141 48.868C192.083 52.802 193.653 56.1879 193.653 56.3491C193.653 56.6393 190.46 62.6049 190.3 62.6049C190.247 62.6049 190.034 62.2825 189.821 61.8955Z" fill="white"/>
<path d="M154.934 55.0593C147.829 51.5445 147.403 51.2865 145.434 48.9647C143.411 46.5463 142.054 43.6118 141.841 41.1611C141.761 40.1937 141.788 39.3876 141.921 39.3876C142.054 39.3876 145.168 40.8387 148.813 42.6122C153.923 45.0952 155.786 46.1593 156.77 47.1267C159.325 49.7064 160.602 52.4151 160.842 55.7687C160.975 57.3488 160.922 57.768 160.629 57.7358C160.416 57.7035 157.861 56.5104 154.934 55.0593Z" fill="white"/>
<path d="M226.891 52.8664C226.891 52.8019 226.837 51.4798 226.784 49.8675C226.678 46.9653 226.066 43.9987 225.214 42.5476C224.602 41.4835 224.682 41.2577 225.666 41.4835C227.183 41.8704 229.578 43.644 230.776 45.2563C232 46.9008 233.038 49.932 233.038 51.8668V52.9309H229.977C228.301 52.9309 226.917 52.8987 226.891 52.8664Z" fill="white"/>
<path d="M196.155 49.1582C195.569 47.0944 194.318 44.3857 193.387 43.1281L192.243 41.6448H196.687C200.705 41.6448 201.663 41.8383 200.865 42.4509C200.705 42.5477 199.694 44.2245 198.576 46.1593C197.485 48.1263 196.5 49.7064 196.421 49.7064C196.367 49.7064 196.234 49.4484 196.155 49.1582Z" fill="white"/>
<path d="M111.932 68.0344C111.187 67.2282 111.054 66.8735 111.054 65.5837C111.054 64.2938 111.187 63.9391 111.932 63.1329C113.449 61.4884 115.072 61.9721 116.376 64.4873C116.749 65.1645 117.414 65.9706 117.893 66.2608L118.745 66.809L118 67.5185C117.042 68.4536 115.578 68.9695 114.008 68.9695C113.05 68.9695 112.624 68.7761 111.932 68.0344Z" fill="white"/>
<path d="M120.661 61.166C119.144 58.2638 110.921 41.4635 110.921 41.2055C110.921 41.0443 112.358 40.9153 114.195 40.9153H117.494L120.98 48.1385C122.923 52.0725 124.493 55.4584 124.493 55.6196C124.493 55.9098 121.3 61.8754 121.14 61.8754C121.087 61.8754 120.874 61.553 120.661 61.166Z" fill="white"/>
<path d="M126.994 48.4287C126.409 46.3649 125.158 43.6562 124.227 42.3986L123.083 40.9153H127.527C131.545 40.9153 132.503 41.1088 131.705 41.7214C131.545 41.8182 130.534 43.495 129.416 45.4298C128.325 47.3968 127.34 48.9769 127.26 48.9769C127.207 48.9769 127.074 48.7189 126.994 48.4287Z" fill="white"/>
<path d="M156.743 41.8382C155.546 41.1611 154.96 39.6455 155.2 37.8074C155.466 35.8404 155.466 34.2281 155.2 33.3252C154.96 32.4868 155.386 32.4223 156.93 32.9382C159.83 33.9056 161.773 36.8078 161.214 39.323C161.054 40.0002 160.655 40.8709 160.336 41.2578C159.538 42.1607 157.834 42.4187 156.743 41.8382Z" fill="white"/>
</svg>
