<svg width="32" height="32" viewBox="0 0 32 32" fill="none" xmlns="http://www.w3.org/2000/svg">
<path d="M1.79845 22.2118C1.55015 21.8756 1.13198 21.1627 0.857548 20.6246C0.112671 19.1315 0.0603993 18.4052 0.661528 17.6923L0.949024 17.3426L3.03991 17.894C6.16316 18.7011 6.30691 18.7549 6.34611 19.0912C6.37225 19.293 6.31998 19.3737 6.15009 19.3737C5.92794 19.3871 5.92794 19.3871 6.15009 19.5216C6.41145 19.683 6.47679 20.517 6.21543 20.4094C6.12396 20.369 5.69271 20.1942 5.26147 20.0059C3.78478 19.3602 1.38027 18.4321 1.18425 18.4321C0.792208 18.4321 1.05357 19.8848 1.72004 21.4182C2.04674 22.1715 2.3081 22.8037 2.28196 22.8171C2.26889 22.8306 2.04674 22.5616 1.79845 22.2118Z" fill="#7B78F7"/>
<path d="M8.5286 21.4989C8.24111 21.3375 7.60077 21.0147 7.09112 20.786C6.22863 20.396 5.32694 19.7234 5.32694 19.4678C5.32694 19.3064 5.67978 18.9701 5.84966 18.9701C5.92807 18.9701 5.9542 18.9163 5.915 18.8356C5.8758 18.7684 5.8758 18.7011 5.94114 18.7011C6.05875 18.7011 9.05132 19.683 9.4303 19.8445C9.63938 19.9386 9.66552 19.9117 9.60018 19.7234C9.54791 19.5889 9.56098 19.5216 9.63938 19.5754C9.87461 19.7234 9.78313 20.3018 9.48257 20.5036C9.26041 20.665 9.20814 20.8264 9.22121 21.2568C9.24734 21.5527 9.20814 21.7949 9.15587 21.7949C9.1036 21.7814 8.8161 21.6469 8.5286 21.4989Z" fill="#8D72FE"/>
<path d="M8.00613 16.8852C7.28739 15.5536 5.64082 11.8545 5.43173 11.1416C5.20958 10.348 5.39253 9.74269 6.00673 9.28535C6.47717 8.93563 6.66013 8.88182 7.41807 8.88182C8.43738 8.88182 9.63963 9.20465 9.63963 9.48712C9.63963 9.59473 9.50895 9.93101 9.35214 10.2404C8.98623 10.9802 8.86862 12.0697 9.16919 12.1908C9.2868 12.2311 9.37827 12.3253 9.37827 12.3926C9.37827 12.4733 9.48282 12.675 9.60043 12.8768C9.83565 13.24 9.86179 13.3207 9.9794 14.2354C10.0447 14.6927 10.0186 14.8003 9.84872 14.8003C9.69191 14.8003 9.63963 14.9348 9.63963 15.3383C9.63963 15.715 9.58736 15.8764 9.44361 15.8764C9.33907 15.8764 9.19532 15.9974 9.11691 16.1454C9.0385 16.2934 8.89476 16.4144 8.79021 16.4144C8.64646 16.4144 8.6334 16.4817 8.72487 16.7642C8.89476 17.1946 8.89476 18.0286 8.73794 18.0286C8.65953 18.0286 8.33283 17.5174 8.00613 16.8852Z" fill="#8D72FE"/>
<path d="M11.3383 23.2072C11.09 23.0054 10.4758 22.6019 9.96616 22.2925C9.05139 21.741 8.4764 21.203 8.46333 20.8936C8.46333 20.6649 9.23435 19.9117 9.4565 19.9117C9.70479 19.9117 9.70479 19.8982 9.11673 18.9432C8.33265 17.6519 7.92754 16.0109 8.39799 16.0109C8.50254 16.0109 8.64629 15.8898 8.72469 15.7418C8.8031 15.5939 8.94685 15.4728 9.05139 15.4728C9.28662 15.4728 9.28662 15.419 9.10367 14.7599C8.94685 14.1412 8.99912 14.047 9.37809 14.2622C9.66559 14.4236 9.66559 14.4102 9.58718 14.047C9.53491 13.8452 9.37809 13.509 9.23435 13.3072C9.10367 13.1054 8.98605 12.9037 8.98605 12.8499C8.98605 12.796 8.89458 12.675 8.79003 12.5943C8.64629 12.4867 8.58095 12.1907 8.56788 11.6393C8.54174 10.7111 8.56788 10.617 8.94685 9.86371C9.10367 9.56779 9.19514 9.27186 9.15594 9.23151C8.77697 8.84143 10.6196 9.80991 11.9656 10.7111C12.7366 11.2223 13.0371 11.5047 13.0371 11.7065C13.0371 11.8545 12.9457 12.0159 12.8411 12.0562C12.7366 12.11 12.6451 12.2849 12.6451 12.4732C12.6451 12.8902 12.4491 13.2803 11.9656 13.778C11.7695 14.0066 11.5997 14.2622 11.5997 14.3698C11.5997 14.4774 11.273 14.316 10.7372 13.9259C10.2667 13.5762 9.86161 13.3206 9.82241 13.3475C9.75707 13.4282 11.2991 16.8583 11.9525 18.0958C12.2269 18.6204 12.7366 19.4812 13.0763 20.0058L13.6775 20.9878L13.3638 21.0685C13.1286 21.1223 13.0371 21.2433 13.0371 21.4854C13.0371 21.8755 12.5798 22.6019 12.3315 22.6019C12.24 22.6019 12.0701 22.8171 11.9786 23.0861L11.7957 23.5569L11.3383 23.2072Z" fill="#9C6EFE"/>
<path d="M14.6053 16.9524L14.1479 16.5624L14.6445 16.5489C15.1019 16.5489 15.128 16.5758 15.128 16.9524C15.128 17.1811 15.1149 17.356 15.0888 17.356C15.0757 17.356 14.8536 17.1811 14.6053 16.9524Z" fill="#9C6EFE"/>
<path d="M13.1547 3.05746C12.3707 2.15624 10.9985 0.501755 10.6849 0.0847709C10.5804 -0.0631911 11.1684 0.380695 12.0178 1.05325C13.2332 2.04863 13.5207 2.34455 13.4684 2.55977C13.4161 2.76154 13.4684 2.82879 13.6775 2.82879C13.9127 2.82879 13.9519 2.9095 13.9519 3.36684C13.9519 3.66276 13.9388 3.90488 13.9258 3.90488C13.8996 3.90488 13.5599 3.52825 13.1547 3.05746Z" fill="#9C6EFE"/>
<path d="M13.795 25.1846C12.5013 24.3102 10.6979 22.5078 11.4036 22.7903C11.5081 22.8306 11.5865 22.8172 11.5865 22.7634C11.5473 22.4809 11.7825 22.0505 11.9394 22.1177C12.1876 22.2119 12.5797 21.5662 12.5405 21.1223C12.5013 20.7995 12.5535 20.7457 12.9325 20.665C13.2723 20.5977 13.403 20.6246 13.5598 20.8399C13.8734 21.2434 15.0365 22.8441 15.3632 23.3014C15.8075 23.9336 15.7421 24.512 15.1933 25.0097C14.6706 25.4805 14.3047 25.5343 13.795 25.1846Z" fill="#AF67FE"/>
<path d="M18.7739 20.6381C17.5978 19.6158 17.6109 19.6427 18.1728 19.6427C18.6171 19.6427 18.6563 19.6696 18.6563 20.0462C18.6563 20.4229 18.6955 20.4498 19.1137 20.4498C19.5319 20.4498 19.5711 20.4767 19.5711 20.8533C19.5711 21.082 19.558 21.2568 19.5319 21.2568C19.5057 21.2568 19.166 20.9744 18.7739 20.6381Z" fill="#AF67FE"/>
<path d="M15.6245 17.8672C14.5791 16.9525 12.9717 15.6208 11.8217 14.7331C11.0377 14.1412 10.9985 13.9395 11.5081 13.4283C12.0962 12.8499 12.2399 12.5405 12.1615 12.016C12.1092 11.6662 12.1354 11.599 12.3445 11.6124C12.4882 11.6259 12.5797 11.5586 12.5666 11.4107C12.5536 11.2761 12.5797 11.1685 12.6189 11.1685C12.7365 11.1685 17.1535 14.6389 17.4149 14.9348C17.6501 15.2039 17.637 15.2039 17.2058 15.2039C16.8399 15.2173 16.7092 15.298 16.4609 15.6881C16.1603 16.1992 15.9251 17.0332 15.912 17.6654C15.912 17.9882 15.9512 18.0286 16.3694 18.0286C16.7876 18.0286 16.8268 18.0555 16.8268 18.4321C16.8268 18.6608 16.8137 18.8357 16.7876 18.8357C16.7615 18.8357 16.2387 18.3918 15.6245 17.8672Z" fill="#AF67FE"/>
<path d="M15.8728 6.29924C15.1933 5.46527 14.3831 4.51024 14.0956 4.17397C13.8081 3.83769 13.5729 3.51486 13.5598 3.44761C13.5598 3.3938 13.403 3.21894 13.22 3.07098C13.0109 2.88266 12.9064 2.7078 12.9456 2.54639C12.9848 2.39842 12.9587 2.31772 12.8933 2.37152C12.828 2.41187 12.7757 2.38497 12.7757 2.31772C12.7757 2.23701 12.8672 2.14285 12.9848 2.1025C13.1285 2.0487 13.795 2.55984 15.1018 3.75698C16.1603 4.71201 17.2319 5.72084 17.4802 5.98986L17.9376 6.48755L17.258 6.43375C16.7353 6.37995 16.5654 6.40685 16.5654 6.54136C16.5654 6.64897 16.7092 6.72967 16.8921 6.72967C17.1927 6.72967 17.2188 6.78348 17.2188 7.26772C17.2188 7.56364 17.1927 7.80576 17.1666 7.80576C17.1404 7.80576 16.5524 7.11976 15.8728 6.29924Z" fill="#AF67FE"/>
<path d="M12.3183 1.61826C12.1223 1.40304 12.1223 1.34924 12.2791 1.34924C12.3837 1.34924 12.5797 1.4703 12.7104 1.61826C12.9064 1.83348 12.9064 1.88728 12.7496 1.88728C12.645 1.88728 12.449 1.76622 12.3183 1.61826Z" fill="#AF67FE"/>
<path d="M25.7783 26.8525L25.2555 26.3817L25.7521 26.3683C26.2748 26.3683 26.4186 26.5297 26.3402 27.0408C26.301 27.3099 26.2748 27.3099 25.7783 26.8525Z" fill="#BE63FE"/>
<path d="M23.6874 24.9694L23.1646 24.4986L23.6612 24.4851C24.184 24.4851 24.3277 24.6465 24.2493 25.1577C24.2101 25.4267 24.184 25.4267 23.6874 24.9694Z" fill="#BE63FE"/>
<path d="M25.4516 22.5885V22.185L25.8436 22.4675C26.4186 22.8845 26.4317 23.0055 25.922 23.0055C25.4908 23.0055 25.4516 22.9786 25.4516 22.5885Z" fill="#BE63FE"/>
<path d="M22.9686 20.3018V19.8983L23.3607 20.1808C23.9357 20.5978 23.9487 20.7188 23.4391 20.7188C23.0078 20.7188 22.9686 20.6919 22.9686 20.3018Z" fill="#BE63FE"/>
<path d="M17.1272 19.1585C16.2386 18.3783 15.5199 17.6654 15.5199 17.5713C15.5199 17.4637 15.4284 17.3157 15.3238 17.2215C15.1409 17.0736 15.154 17.0198 15.3892 16.8584C15.546 16.7508 15.6375 16.5893 15.6113 16.4952C15.5591 16.3607 15.6505 16.1186 16.1863 15.1097C16.3039 14.8811 16.4608 14.8004 16.8136 14.8004C17.2056 14.8004 17.467 14.9618 18.3295 15.6881C20.2897 17.3695 21.0084 18.0555 20.93 18.1766C20.8908 18.2438 20.6556 18.2976 20.4073 18.2976C20.159 18.2976 19.963 18.3649 19.963 18.4321C19.963 18.5129 19.8192 18.7415 19.6363 18.9298C19.4664 19.1316 19.2834 19.4679 19.2442 19.6696C19.192 19.8714 19.0874 20.0866 18.996 20.1404C18.9045 20.2077 18.7999 20.3153 18.7738 20.4095C18.7477 20.5036 18.0158 19.9521 17.1272 19.1585Z" fill="#BE63FE"/>
<path d="M24.3408 18.2976C24.0794 17.7865 24.0925 17.7596 24.4714 17.7596C24.7589 17.7596 24.7981 17.8134 24.7981 18.2304C24.7981 18.8088 24.6152 18.8357 24.3408 18.2976Z" fill="#BE63FE"/>
<path d="M18.8914 10.0656C18.5516 9.59478 17.9505 8.82807 17.5585 8.34383C17.1534 7.85959 16.8267 7.4157 16.8267 7.34845C16.8267 7.29464 16.6829 7.11978 16.5 6.97182C16.317 6.82386 16.1733 6.59519 16.1733 6.44723C16.1733 6.28581 16.121 6.21856 16.0295 6.27236C15.938 6.32617 15.9119 6.24546 15.938 6.04369C15.9642 5.77467 16.0556 5.72087 16.3693 5.73432C17.1664 5.77467 17.7022 6.19166 19.6755 8.26312C20.7601 9.41992 21.7141 10.4826 21.7925 10.644C21.9363 10.8995 21.9101 10.913 21.4397 10.8726C21.0084 10.8323 20.9431 10.7785 20.9039 10.4691C20.8777 10.2539 20.7863 10.0925 20.6948 10.0925C20.5902 10.0925 20.3289 10.0521 20.1067 10.0118C19.7147 9.93106 19.7016 9.93106 19.7016 10.4153C19.7016 10.6843 19.6494 10.8995 19.5971 10.8995C19.5317 10.8995 19.2181 10.5229 18.8914 10.0656Z" fill="#BE63FE"/>
<path d="M24.8637 26.0454L24.341 25.5746L24.8376 25.5612C25.3603 25.5612 25.5041 25.7226 25.4257 26.2337C25.3865 26.5028 25.3603 26.5028 24.8637 26.0454Z" fill="#CE5FFE"/>
<path d="M20.3291 21.9967C18.4865 20.3556 18.1337 19.9117 18.578 19.7369C18.6826 19.6965 18.8002 19.4813 18.8394 19.2795C18.8916 19.0643 19.0746 18.728 19.2445 18.5263C19.4274 18.338 19.5712 18.0824 19.5712 17.9882C19.5712 17.8806 19.6627 17.7192 19.7672 17.6251C19.9371 17.4905 20.0155 17.4905 20.1985 17.652C20.3161 17.773 20.4859 17.8403 20.5644 17.7999C20.695 17.7596 21.6751 18.5935 23.6223 20.4363L24.341 21.1089L23.8836 21.1223C23.4655 21.1223 23.4001 21.1761 23.2433 21.5931C23.1518 21.8487 22.995 22.0639 22.8905 22.0639C22.7859 22.0639 22.7075 22.1984 22.7075 22.4002C22.7075 22.5751 22.6291 22.7768 22.5246 22.8306C22.42 22.8844 22.3155 23.1131 22.2893 23.3149C22.2501 23.6915 22.1979 23.6511 20.3291 21.9967Z" fill="#CE5FFE"/>
<path d="M21.8581 14.1681C21.5053 13.5897 20.7865 12.5809 20.2769 11.9083C19.7672 11.2358 19.3098 10.5229 19.2576 10.3211C19.2184 10.1193 19.1138 9.98483 19.0485 10.0252C18.9701 10.0655 18.9178 10.0117 18.9178 9.89068C18.9178 9.78307 19.0223 9.63511 19.153 9.59475C19.2706 9.54095 19.4405 9.41989 19.5189 9.31228C19.6365 9.15087 19.7019 9.15087 19.9763 9.29883C20.1462 9.39299 20.3161 9.48714 20.3553 9.5006C20.8519 9.62165 21.4268 10.0655 21.3223 10.2404C21.2831 10.3077 21.3484 10.4018 21.4791 10.4556C21.845 10.6036 23.6223 12.702 24.72 14.3026L25.3472 15.2039H24.7984C24.3802 15.2039 24.2365 15.1501 24.1842 14.9617C24.1581 14.8272 24.0012 14.6255 23.8575 14.5178C23.7007 14.4102 23.4785 14.2354 23.3609 14.1143C23.0342 13.7915 22.7075 14.0874 22.7075 14.7196C22.7075 14.9886 22.6683 15.2039 22.616 15.2039C22.5507 15.2039 22.224 14.7331 21.8581 14.1681Z" fill="#CE5FFE"/>
<path d="M28.7841 29.3678C28.3267 29.1122 27.4642 28.3859 25.112 26.2472C24.1841 25.4132 23.0603 24.3909 22.616 23.9874C22.1586 23.5838 21.7927 23.1669 21.7927 23.0592C21.7927 22.9516 21.7404 22.8709 21.662 22.8709C21.5967 22.8709 21.5313 22.8037 21.5313 22.723C21.5313 22.6557 21.5836 22.6288 21.662 22.6692C21.8319 22.7768 22.3677 22.2522 22.2631 22.0908C22.1455 21.889 22.3154 21.5393 22.4984 21.6065C22.7074 21.6872 22.9819 21.0685 22.8773 20.7726C22.7989 20.5708 22.8643 20.5573 23.3739 20.638C23.6876 20.6919 24.0927 20.8667 24.2756 21.0416C24.4586 21.203 24.9813 21.6872 25.4387 22.1177C25.896 22.5347 26.3012 22.8575 26.3273 22.8171C26.5625 22.575 23.8182 16.9928 22.6944 15.419C22.4853 15.1231 22.3154 14.7734 22.3154 14.6254C22.3154 14.4909 22.2631 14.4236 22.1847 14.464C22.1194 14.5044 21.9887 14.3698 21.9103 14.1681C21.8319 13.9663 21.6881 13.63 21.5967 13.4283L21.4137 13.0516L21.7404 13.2669C21.9103 13.3879 22.054 13.5359 22.054 13.6031C22.054 13.8184 22.4592 13.7376 22.7989 13.4686C23.1518 13.1727 23.4262 13.2265 23.6222 13.5897C23.7006 13.7511 23.8574 13.8183 24.0404 13.778C24.2103 13.7511 24.2625 13.7511 24.1841 13.8049C24.0535 13.8587 24.0535 13.926 24.1972 14.0739C24.3017 14.1815 24.4455 14.2622 24.5239 14.2622C24.6023 14.2622 24.6284 14.3564 24.5892 14.464C24.537 14.5985 24.6284 14.7061 24.8375 14.7868C25.3472 14.9886 27.3205 18.1227 28.575 20.7053C29.7642 23.1534 31.071 27.0139 31.071 28.063C31.071 28.4531 30.9664 28.6549 30.5613 29.0719C29.9863 29.6637 29.4767 29.7444 28.7841 29.3678Z" fill="#E559FE"/>
</svg>
